HIERARCHY
ROOT Hips
{
	OFFSET 0.00 0.00 0.00
	CHANNELS 6 Xposition Yposition Zposition Xrotation Yrotation Zrotation
	JOINT Spine
	{
		OFFSET 0.00000 3.24121 0.00000
		CHANNELS 3 Xrotation Yrotation Zrotation
		JOINT Head
		{
			OFFSET 0.00000 18.38296 0.00000
			CHANNELS 3 Xrotation Yrotation Zrotation
			End Site
			{
				OFFSET 0.00000 4.52755 0.00000
			}
		}
		JOINT LeftShoulder
		{
			OFFSET 0.00000 12.82826 0.00000
			CHANNELS 3 Xrotation Yrotation Zrotation
			JOINT LeftArm
			{
				OFFSET 7.74805 0.00000 0.00000
				CHANNELS 3 Xrotation Yrotation Zrotation
				JOINT LeftForeArm
				{
					OFFSET 10.63561 0.00000 0.00000
					CHANNELS 3 Yrotation Zrotation Xrotation
					JOINT LeftHand
					{
						OFFSET 8.34675 0.00000 0.00000
						CHANNELS 3 Xrotation Yrotation Zrotation
						JOINT LeftHandThumb1
						{
							OFFSET 0.00000 0.00000 0.00000
							CHANNELS 3 Xrotation Zrotation Yrotation
							End Site
							{
								OFFSET 0.00000 0.00000 3.93700
							}
						}
						End Site
						{
							OFFSET 3.93700 0.00000 0.00000
						}
					}
				}
			}
		}
		JOINT RightShoulder
		{
			OFFSET 0.00000 12.82826 0.00000
			CHANNELS 3 Xrotation Yrotation Zrotation
			JOINT RightArm
			{
				OFFSET -7.74805 0.00000 0.00000
				CHANNELS 3 Xrotation Yrotation Zrotation
				JOINT RightForeArm
				{
					OFFSET -10.63561 0.00000 0.00000
					CHANNELS 3 Yrotation Zrotation Xrotation
					JOINT RightHand
					{
						OFFSET -8.34675 0.00000 0.00000
						CHANNELS 3 Xrotation Yrotation Zrotation
						JOINT RightHandThumb1
						{
							OFFSET 0.00000 0.00000 0.00000
							CHANNELS 3 Xrotation Zrotation Yrotation
							End Site
							{
								OFFSET 0.00000 0.00000 3.93700
							}
						}
						End Site
						{
							OFFSET -3.93700 0.00000 0.00000
						}
					}
				}
			}
		}
	}
	JOINT LeftUpLeg
	{
		OFFSET 3.43402 0.00000 0.00000
		CHANNELS 3 Xrotation Yrotation Zrotation
		JOINT LeftLeg
		{
			OFFSET 0.00000 -15.71302 0.00000
			CHANNELS 3 Xrotation Yrotation Zrotation
			JOINT LeftFoot
			{
				OFFSET 0.00000 -14.43512 0.00000
				CHANNELS 3 Xrotation Yrotation Zrotation
				JOINT LeftToeBase
				{
					OFFSET 0.00000 -1.27828 4.77061
					CHANNELS 3 Xrotation Yrotation Zrotation
					End Site
					{
						OFFSET 0.00000 0.00000 2.95275
					}
				}
			}
		}
	}
	JOINT RightUpLeg
	{
		OFFSET -3.43402 0.00000 0.00000
		CHANNELS 3 Xrotation Yrotation Zrotation
		JOINT RightLeg
		{
			OFFSET 0.00000 -15.71302 0.00000
			CHANNELS 3 Xrotation Yrotation Zrotation
			JOINT RightFoot
			{
				OFFSET 0.00000 -14.43512 0.00000
				CHANNELS 3 Xrotation Yrotation Zrotation
				JOINT RightToeBase
				{
					OFFSET 0.00000 -1.27828 4.77061
					CHANNELS 3 Xrotation Yrotation Zrotation
					End Site
					{
						OFFSET 0.00000 0.00000 2.95275
					}
				}
			}
		}
	}
}
MOTION
Frames: 9
Frame Time: 0.008333
 -3.0132 32.4165 -7.1804 34.4774 4.5179 -1.8602 -39.0394 -4.7546 -0.7161 4.1894 -4.1278 -7.0017 30.3928 30.8742 20.7978 -55.7695 -8.6877 -34.3069 1.4142 0.0000 19.4264 3.8272 23.5941 -9.4885 33.1476 -0.0000 26.2537 30.8100 -32.7665 -22.7434 -56.7508 1.3855 46.9504 -1.9976 -0.0000 -38.1987 5.3461 18.4730 -16.4536 32.8623 0.0000 -24.3270 -28.8165 3.4415 1.3376 -0.4912 0.0000 0.0000 -6.2900 -1.4945 -2.7478 4.1047 -0.0000 -0.0000 -27.5344 -8.0409 0.3164 -3.6626 -0.0000 -0.0000 -7.8070 -12.4572 12.0566 17.8345 0.0000 -0.0000
 -3.0080 32.4162 -7.1794 34.4935 4.5569 -1.8811 -39.0511 -4.7424 -0.7221 4.2210 -4.1801 -6.9719 30.4790 30.8920 20.7410 -55.6847 -8.7166 -34.4023 1.3460 0.0000 19.3970 3.7953 23.6241 -9.3995 33.1476 -0.0000 26.2537 30.8263 -32.7657 -22.6799 -56.7363 1.3206 46.9415 -1.8716 -0.0000 -38.2504 5.4080 18.6003 -16.5308 32.8623 0.0000 -24.3270 -28.8420 3.4203 1.3282 -0.4721 0.0000 -0.0000 -6.2996 -1.5413 -2.7414 4.1087 0.0000 -0.0000 -27.5407 -8.0499 0.3082 -3.6675 -0.0000 0.0000 -7.8495 -12.4745 11.9469 17.9200 0.0000 -0.0000
 -3.0026 32.4166 -7.1774 34.5061 4.6062 -1.9162 -39.0599 -4.7611 -0.7191 4.2715 -4.0807 -7.0045 30.5701 30.9096 20.6640 -55.6857 -8.6793 -34.5195 1.2765 0.0000 19.4623 3.6988 23.6845 -9.1424 33.1476 -0.0000 26.2537 30.8957 -32.7700 -22.5876 -56.7482 1.2524 46.9187 -1.6763 -0.0000 -38.3205 5.4461 18.5492 -16.6835 32.8623 0.0000 -24.3270 -28.8605 3.3801 1.3243 -0.4629 -0.0000 0.0000 -6.2911 -1.5590 -2.7442 4.0539 0.0000 -0.0000 -27.5729 -8.1824 0.3071 -3.6031 -0.0000 0.0000 -7.8883 -12.4172 11.9156 17.9402 -0.0000 -0.0000
 -2.9969 32.4164 -7.1762 34.5206 4.6632 -1.9487 -39.0698 -4.7816 -0.7181 4.3104 -4.0577 -7.0263 30.6639 30.9263 20.5919 -55.5974 -8.6869 -34.6437 1.1890 0.0000 19.4487 3.6914 23.8094 -9.0800 33.1476 -0.0000 26.2537 30.9677 -32.7742 -22.5023 -56.7582 1.1269 46.9031 -1.4218 -0.0000 -38.3355 5.5025 18.5721 -16.8285 32.8623 0.0000 -24.3270 -28.8829 3.3140 1.3160 -0.4503 -0.0000 -0.0000 -6.3091 -1.5629 -2.7438 4.1197 0.0000 0.0000 -27.5804 -8.2359 0.2978 -3.5924 0.0000 -0.0000 -7.9026 -12.4359 11.9318 17.9338 -0.0000 -0.0000
 -2.9916 32.4161 -7.1757 34.5203 4.7296 -1.9831 -39.0608 -4.8226 -0.7158 4.3473 -4.0296 -7.0624 30.7595 30.9180 20.4835 -55.4857 -8.6882 -34.7413 1.0952 0.0000 19.4641 3.6368 23.8683 -8.9271 33.1476 -0.0000 26.2537 31.0827 -32.7946 -22.3911 -56.8350 1.0120 46.9009 -1.1735 -0.0000 -38.4966 5.5715 18.5733 -17.0277 32.8623 0.0000 -24.3270 -28.8949 3.2329 1.3061 -0.4339 -0.0000 -0.0000 -6.3098 -1.5700 -2.7506 4.1145 -0.0000 0.0000 -27.5622 -8.3003 0.2889 -3.6065 0.0000 -0.0000 -7.9061 -12.4525 11.9621 17.9259 -0.0000 -0.0000
 -2.9846 32.4163 -7.1743 34.5432 4.7904 -2.0129 -39.0791 -4.8489 -0.7156 4.3811 -3.9884 -7.0920 30.8842 30.9427 20.3717 -55.4004 -8.7193 -34.8883 1.0259 0.0000 19.4058 3.5330 23.8725 -8.6740 33.1476 -0.0000 26.2537 31.1299 -32.7823 -22.3177 -56.8545 0.8149 46.8973 -0.8558 -0.0000 -38.6638 5.6167 18.5913 -17.1435 32.8623 0.0000 -24.3270 -28.9238 3.1528 1.2893 -0.4233 0.0000 0.0000 -6.3065 -1.5660 -2.7341 4.1271 -0.0000 0.0000 -27.5687 -8.3539 0.2711 -3.6177 0.0000 0.0000 -7.8612 -12.4913 12.0800 17.7994 -0.0000 -0.0000
 -2.9780 32.4165 -7.1749 34.5570 4.8469 -2.0440 -39.0831 -4.8773 -0.7064 4.4184 -3.9289 -7.1320 31.0077 30.9330 20.2383 -55.3205 -8.7143 -35.0215 0.9371 0.0000 19.4382 3.4375 23.9130 -8.4291 33.1476 -0.0000 26.2537 31.2200 -32.7838 -22.2182 -57.0318 0.4732 46.8976 -0.4859 -0.0000 -38.6328 5.6928 18.6710 -17.2960 32.8623 0.0000 -24.3270 -28.9531 3.0827 1.2775 -0.4001 -0.0000 -0.0000 -6.3104 -1.5688 -2.7358 4.1042 0.0000 -0.0000 -27.5709 -8.4111 0.2596 -3.6248 -0.0000 0.0000 -7.8697 -12.5090 12.0723 17.8585 -0.0000 -0.0000
 -2.9710 32.4166 -7.1752 34.5766 4.8954 -2.0713 -39.0903 -4.9043 -0.6980 4.4377 -3.8453 -7.1589 31.1199 30.9590 20.1177 -55.2650 -8.7146 -35.2100 0.8493 0.0000 19.4550 3.3810 24.0271 -8.2558 33.1476 -0.0000 26.2537 31.2557 -32.7123 -22.1686 -57.1027 0.0818 46.8773 -0.0535 -0.0000 -38.6728 5.8299 18.8356 -17.5499 32.8623 0.0000 -24.3270 -28.9861 3.0258 1.2647 -0.3780 0.0000 -0.0000 -6.3078 -1.5887 -2.7166 4.0649 -0.0000 0.0000 -27.5782 -8.4454 0.2496 -3.6365 -0.0000 0.0000 -7.9125 -12.5111 11.9724 17.9508 0.0000 0.0000
 -2.9630 32.4163 -7.1748 34.5783 4.9454 -2.0972 -39.0819 -4.9272 -0.6840 4.4649 -3.8025 -7.1579 31.2384 30.9616 19.9830 -55.2055 -8.6992 -35.4121 0.7336 0.0000 19.4862 3.2536 24.1234 -7.9186 33.1476 -0.0000 26.2537 31.3425 -32.6961 -22.0668 -57.2637 -0.2928 46.8890 0.3930 -0.0000 -38.6364 6.0212 19.1001 -17.8665 32.8623 0.0000 -24.3270 -28.9986 2.9691 1.2519 -0.3639 -0.0000 -0.0000 -6.2477 -1.6015 -2.8725 3.8491 0.0000 -0.0000 -27.5665 -8.4962 0.2356 -3.6477 0.0000 0.0000 -7.9096 -12.5136 11.9561 17.9395 -0.0000 0.0000
